<svg width="25" height="24" viewBox="0 0 25 24" fill="none" xmlns="http://www.w3.org/2000/svg">
<circle cx="3.40426" cy="3.40426" r="3.40426" transform="matrix(-1 0 0 1 16.1172 5)" stroke="#1D1B20" stroke-width="1.5"/>
<path d="M6.75537 16.8594C6.75537 16.1272 7.21567 15.474 7.90524 15.2277V15.2277C11.0141 14.1174 14.4115 14.1174 17.5204 15.2277V15.2277C18.21 15.474 18.6703 16.1272 18.6703 16.8594V17.979C18.6703 18.9896 17.7752 19.7659 16.7748 19.6229L16.4412 19.5753C13.9682 19.222 11.4575 19.222 8.98442 19.5753L8.65087 19.6229C7.65044 19.7659 6.75537 18.9896 6.75537 17.979V16.8594Z" stroke="#1D1B20" stroke-width="1.5"/>
<path d="M17.8194 11.9028C19.2966 11.9028 20.4941 10.7052 20.4941 9.22799C20.4941 7.75076 19.2966 6.55322 17.8194 6.55322" stroke="#1D1B20" stroke-width="1.5" stroke-linecap="round"/>
<path d="M20.7486 18.0051L21.0106 18.0425C21.7967 18.1548 22.5 17.5448 22.5 16.7508V15.8711C22.5 15.2958 22.1383 14.7826 21.5965 14.5891C21.0561 14.3961 20.5045 14.2458 19.9468 14.1382" stroke="#1D1B20" stroke-width="1.5" stroke-linecap="round"/>
<path d="M7.18063 11.9028C5.7034 11.9028 4.50586 10.7052 4.50586 9.22799C4.50586 7.75076 5.7034 6.55322 7.18063 6.55322" stroke="#1D1B20" stroke-width="1.5" stroke-linecap="round"/>
<path d="M4.25143 18.0051L3.98935 18.0425C3.2033 18.1548 2.50003 17.5448 2.50003 16.7508V15.8711C2.50003 15.2958 2.8617 14.7826 3.4035 14.5891C3.94395 14.3961 4.49549 14.2458 5.05322 14.1382" stroke="#1D1B20" stroke-width="1.5" stroke-linecap="round"/>
</svg>
