<svg width="16" height="16" viewBox="0 0 16 16" fill="none" xmlns="http://www.w3.org/2000/svg">
<g clip-path="url(#clip0_321_2240)">
<path d="M7.99841 12.8468C10.6745 12.8468 12.844 10.6774 12.844 8.00124C12.844 5.32511 10.6745 3.15567 7.99841 3.15567C5.32227 3.15567 3.15283 5.32511 3.15283 8.00124C3.15283 10.6774 5.32227 12.8468 7.99841 12.8468Z" stroke="#343337" stroke-width="1.3" stroke-linecap="round" stroke-linejoin="round"/>
<path d="M7.99921 8.5395C8.29656 8.5395 8.53761 8.29845 8.53761 8.0011C8.53761 7.70376 8.29656 7.46271 7.99921 7.46271C7.70186 7.46271 7.46082 7.70376 7.46082 8.0011C7.46082 8.29845 7.70186 8.5395 7.99921 8.5395Z" stroke="#343337" stroke-width="1.14286" stroke-linecap="round" stroke-linejoin="round"/>
<path d="M7.99892 3.15527V1.00168M7.99892 15V12.8464M12.8445 8.00084H14.9981M0.999756 8.00084H3.15334" stroke="#343337" stroke-width="1.3" stroke-linecap="round" stroke-linejoin="round"/>
</g>
<defs>
<clipPath id="clip0_321_2240">
<rect width="16" height="16" fill="white"/>
</clipPath>
</defs>
</svg>
